# xmcd CD database file
#
# Track frame offsets:
#	150
#	14110
#	27747
#	41867
#	53482
#	65580
#	80267
#	93220
#	104370
#	116735
#	130237
#	143057
#	154905
#	167202
#	180650
#	193295
#	207132
#	222367
#	234582
#	248312
#	263335
#	276172
#	290232
#
# Disc length: 4192 seconds
#
# Revision: 2
# Processed by: cddbd v1.5.1PL0 Copyright (c) Steve Scherf et al.
# Submitted via: CDex 1.50
#
DISCID=57105e17
DTITLE=Louis Jordan - Good Times
DYEAR=2000
DGENRE=Jazz
TTITLE0=Ain't Nobody Here But Us Chickens
TTITLE1=I Can't Dance I Got Ants In My Pants
TTITLE2=Rusty Hinge
TTITLE3=Dough The Jitteburg
TTITLE4=Somebody Done Hoodooed The Hoodoo Man
TTITLE5=Do You Call That A Buddy (dirty Cat)
TTITLE6=I'm Gonna Move To The Outskirts Of Town
TTITLE7=The Chicks I Pick Are Slender Tender And Tall
TTITLE8=Is You Is Or Is You Ain't My Baby
TTITLE9=Your Socks Don't Match
TTITLE10=Buzz Me
TTITLE11=Petootie Pie
TTITLE12=Choo Choo Ch'boogie
TTITLE13=Don't Let The Sun Catch You Cryin'
TTITLE14=Let The Good Times Roll
TTITLE15=Texas And Pacific
TTITLE16=Early In The Morning
TTITLE17=You're Much Too Fat (and That's That)
TTITLE18=You're On The Right Track Baby
TTITLE19=Why'd You Do It Baby
TTITLE20=Beans And Cornbread
TTITLE21=Hungry Man
TTITLE22=Saturday Night Fish Fry (part 1 and 2)
EXTD=YEAR: 2000
EXTT0=
EXTT1=
EXTT2=
EXTT3=
EXTT4=
EXTT5=
EXTT6=
EXTT7=
EXTT8=
EXTT9=
EXTT10=
EXTT11=
EXTT12=
EXTT13=
EXTT14=
EXTT15=
EXTT16=
EXTT17=
EXTT18=
EXTT19=
EXTT20=
EXTT21=
EXTT22=
PLAYORDER=
